<svg width="188" height="73" viewBox="0 0 188 73" fill="none" xmlns="http://www.w3.org/2000/svg">
  <g clip-path="url(#clip0_1_357)">
    <path
      d="M36.4545 0C16.3204 0 0 16.3408 0 36.5C0 56.6592 16.3204 73 36.4545 73C56.5886 73 72.909 56.6592 72.909 36.5C72.909 16.3408 56.5886 0 36.4545 0ZM58.236 26.5222C57.8855 26.7573 55.3337 28.4946 54.3382 30.7583C54.3382 30.7583 51.8425 37.6476 47.2261 44.9055C46.2131 48.1835 51.3973 57.4349 51.3973 57.4349H51.3588C52.2351 57.4349 52.9361 58.1578 52.9361 59.0142C52.9361 59.8705 52.214 60.5935 51.3588 60.5935H49.4484C49.3503 60.5935 49.2731 60.5549 49.175 60.5338C49.154 60.5128 49.1364 60.5128 49.1154 60.5128C48.5686 60.397 48.1409 60.0039 47.9657 59.4775C47.9657 59.4564 47.9447 59.4564 47.9447 59.4388C47.3032 58.035 40.8501 48.1414 40.8501 48.1414C39.2902 45.253 36.2687 43.4596 32.9948 43.4596C31.5927 43.4596 30.2677 43.7719 29.0199 44.3966L29.5842 45.5267C30.6568 45.0003 31.7855 44.7265 32.9948 44.7265C35.7429 44.7265 38.2387 46.19 39.6197 48.552C39.9527 49.2925 40.1455 50.1313 40.1455 51.0123L38.2947 57.119H42.1154C43.0689 57.119 43.8505 57.8981 43.8505 58.8562C43.8505 59.8144 43.0724 60.5935 42.1154 60.5935H24.7119C20.9894 60.5935 17.8312 59.2669 15.5913 56.7505C13.6214 54.5254 12.5312 51.5598 12.5312 48.3976C12.5312 45.5302 12.9203 42.6804 13.2533 40.164C13.6634 37.1774 14.1121 32.5552 13.369 31.6953C13.2323 31.5409 12.9589 31.4602 12.5312 31.4602C11.5778 31.4602 10.7961 30.6811 10.7961 29.7229C10.7961 28.7648 11.5743 27.9857 12.5312 27.9857C13.9929 27.9857 15.1637 28.4735 15.9804 29.4106C17.7751 31.4602 17.3054 36.2192 16.7025 40.6519C16.3695 43.07 16.0189 45.7829 16.0014 48.4362C15.9629 51.7914 18.5357 53.9393 19.0229 54.2692V48.3169C19.0229 34.3662 29.0795 31.769 35.14 29.2526L43.8505 25.2517C43.8505 25.2517 46.0729 19.0853 47.3207 17.72C51.7268 12.9575 56.4414 12.3328 56.4414 12.3328C55.7193 14.8492 54.5135 17.4849 55.0182 16.7619C55.0182 16.7619 57.4754 18.1272 58.215 19.1239C58.8004 19.903 59.228 22.4615 59.228 22.4615C59.4804 22.8897 60.2235 23.8654 60.1814 24.3146C60.0833 25.3289 59.0107 25.9922 58.2325 26.5187L58.236 26.5222Z"
      fill="#C75E90" />
    <path
      d="M78.0035 37.5039C78.0035 34.5734 78.8833 32.0149 80.6394 29.8389C82.7321 27.1576 85.7851 25.8169 89.8021 25.8169C95.8276 26.403 99.5502 29.1265 100.973 33.9838C101.226 35.0753 101.39 36.2475 101.475 37.5039V51.8302C101.475 53.1708 100.847 54.136 99.5923 54.7221C99.091 54.9748 98.6283 55.0976 98.2112 55.0976C96.7881 55.0976 95.8276 54.4273 95.3229 53.0866C95.1546 52.669 95.0705 52.2478 95.0705 51.8302V37.5039C94.9023 34.4049 93.1461 32.6887 89.7986 32.3518C86.9524 32.3518 85.2383 33.6925 84.6529 36.3738C84.5688 36.7915 84.5268 37.1705 84.5268 37.5039V51.8302C84.5268 53.1708 83.8573 54.136 82.5183 54.7221C82.1818 54.9748 81.7646 55.0976 81.2634 55.0976C79.8402 55.0976 78.8378 54.4273 78.2524 53.0866C78.0841 52.669 78 52.2478 78 51.8302V37.5039H78.0035Z"
      fill="currentColor" />
    <path
      d="M125.198 47.4331C126.2 46.5943 127.333 46.3872 128.587 46.8048C129.758 47.3067 130.428 48.2297 130.596 49.5704C130.764 50.8269 130.344 51.8341 129.341 52.5852C128.002 53.5889 126.495 54.3049 124.823 54.7225C123.652 54.9752 121.559 55.0595 118.548 54.9752C116.456 54.9752 114.363 54.2628 112.274 52.8379C108.674 50.1565 106.75 46.0924 106.501 40.649V39.2662C106.834 33.5701 108.762 29.506 112.274 27.0773C114.451 25.6524 116.792 24.9399 119.302 24.9399C121.142 24.9399 122.898 25.3576 124.574 26.1964C128.591 28.7093 130.599 32.8997 130.599 38.7643V40.0208C130.599 40.4384 130.515 40.8596 130.347 41.2772C129.762 42.6179 128.714 43.2882 127.21 43.2882H113.529C114.114 46.138 115.79 47.77 118.548 48.1911H119.677C122.604 48.1911 124.448 47.9385 125.201 47.4366L125.198 47.4331ZM119.046 31.724H118.545C117.707 31.724 116.869 31.9767 116.035 32.4786C114.696 33.4016 113.858 34.7844 113.525 36.627H123.817V36.3743C123.48 34.279 122.646 32.8962 121.307 32.2259C120.722 31.8925 120.052 31.724 119.299 31.724H119.046Z"
      fill="currentColor" />
    <path
      d="M138.753 13C139.671 13 140.467 13.3369 141.136 14.0038C141.806 14.6741 142.139 15.4708 142.139 16.3903V34.8649L152.809 24.687C153.896 23.6833 155.15 23.4727 156.574 24.0588C156.907 24.2273 157.243 24.4764 157.576 24.8134C158.579 25.9013 158.789 27.1192 158.203 28.4563C157.951 28.874 157.702 29.253 157.45 29.5864L149.668 36.8759L159.083 49.693C160.002 50.9495 160.044 52.2059 159.209 53.4624C158.957 53.7993 158.666 54.0906 158.33 54.3433C157.159 55.2628 155.904 55.3049 154.565 54.4696C154.229 54.3012 153.938 54.052 153.685 53.715L144.775 41.5262L142.139 44.039V51.704C142.139 52.9605 141.596 53.9256 140.509 54.596C139.338 55.2663 138.206 55.2663 137.119 54.596C136.033 53.9256 135.49 52.9605 135.49 51.704V16.3903C135.49 14.9654 136.117 13.9616 137.372 13.3755C137.789 13.1228 138.252 13 138.753 13Z"
      fill="currentColor" />
    <path
      d="M182.684 27.326C186.449 30.1758 188.334 34.4471 188.334 40.1432C188.334 46.2604 186.452 50.5737 182.684 53.0866C180.591 54.4273 178.25 55.0976 175.656 55.0976C172.725 55.0976 170.132 54.2588 167.874 52.5847C164.695 49.9034 163.146 45.7585 163.23 40.1432C163.23 34.1944 165.112 29.9653 168.877 27.4489C170.885 26.024 173.146 25.3115 175.656 25.3115C178.334 25.3115 180.675 25.9819 182.684 27.3225V27.326ZM175.656 48.5662C179.757 48.5662 181.804 45.7585 181.804 40.1467C181.804 34.5348 179.754 31.9798 175.656 31.9798C174.566 31.9798 173.521 32.3167 172.519 32.9835C170.678 34.1558 169.757 36.5458 169.757 40.1467V40.6485C169.757 45.927 171.723 48.5662 175.656 48.5662Z"
      fill="currentColor" />
    <path d="M150.257 59.3203H154.148V73.3096H150.257V59.3203Z" fill="#C75E90" />
    <path
      d="M156.707 59.3203H160.32L166.069 66.7151V59.3203H169.9V73.3096H166.507L160.538 65.6341V73.3096H156.707V59.3203Z"
      fill="#C75E90" />
    <path
      d="M172.375 59.3203H175.989L181.738 66.7151V59.3203H185.569V73.3096H182.176L176.206 65.6341V73.3096H172.375V59.3203Z"
      fill="#C75E90" />
  </g>
  <defs>
    <clipPath id="clip0_1_357">
      <rect width="188" height="73" fill="white" />
    </clipPath>
  </defs>
</svg>